<svg width="44" height="44" viewBox="0 0 44 44" fill="none" xmlns="http://www.w3.org/2000/svg">
<path d="M10.9996 6.5999C10.9996 5.38303 10.0165 4.3999 8.79961 4.3999C7.58273 4.3999 6.59961 5.38303 6.59961 6.5999V37.3999C6.59961 38.6168 7.58273 39.5999 8.79961 39.5999C10.0165 39.5999 10.9996 38.6168 10.9996 37.3999V29.0399L15.3102 27.7474C18.1909 26.8812 21.2984 27.1493 23.9865 28.4968C26.9221 29.968 30.3459 30.1468 33.419 28.9918L35.9696 28.0362C36.829 27.713 37.3996 26.8949 37.3996 25.9737V8.94428C37.3996 7.36303 35.7359 6.33178 34.3196 7.0399L33.5084 7.44553C30.4215 8.9924 26.7846 8.9924 23.6909 7.44553C21.1884 6.19428 18.3077 5.94678 15.6334 6.75115L10.9996 8.1399V6.5999Z" fill="#EF476F"/>
<path d="M15.8715 18.5102H13.9215L13.6251 19.4072H12.0183L14.0229 13.9082H15.7857L17.7825 19.4072H16.1679L15.8715 18.5102ZM15.4893 17.3402L14.8965 15.5618L14.3115 17.3402H15.4893ZM20.808 18.0422C21.0368 18.0422 21.237 17.9876 21.4086 17.8784C21.5854 17.7692 21.7232 17.6106 21.822 17.4026H23.4678C23.3482 17.9538 23.0986 18.4062 22.719 18.7598C22.3446 19.1134 21.8766 19.3318 21.315 19.415V19.6958C21.5698 19.6958 21.8012 19.7712 22.0092 19.922C22.2224 20.0728 22.329 20.3042 22.329 20.6162C22.329 20.9334 22.2172 21.1674 21.9936 21.3182C21.77 21.469 21.5048 21.5444 21.198 21.5444H19.9266V20.741H21.0186C21.1902 20.741 21.276 20.6864 21.276 20.5772C21.276 20.468 21.1902 20.4134 21.0186 20.4134H20.4102V19.4228C19.9422 19.3656 19.534 19.2122 19.1856 18.9626C18.8372 18.713 18.5668 18.3906 18.3744 17.9954C18.1872 17.595 18.0936 17.1452 18.0936 16.646C18.0936 16.1052 18.2054 15.6242 18.429 15.203C18.6578 14.7766 18.9802 14.4464 19.3962 14.2124C19.8122 13.9732 20.2906 13.8536 20.8314 13.8536C21.5178 13.8536 22.095 14.0382 22.563 14.4074C23.031 14.7714 23.3326 15.268 23.4678 15.8972H21.822C21.7232 15.6892 21.5854 15.5306 21.4086 15.4214C21.237 15.3122 21.0368 15.2576 20.808 15.2576C20.4544 15.2576 20.171 15.385 19.9578 15.6398C19.7498 15.8894 19.6458 16.2248 19.6458 16.646C19.6458 17.0724 19.7498 17.413 19.9578 17.6678C20.171 17.9174 20.4544 18.0422 20.808 18.0422ZM27.6705 18.5102H25.7205L25.4241 19.4072H23.8173L25.8219 13.9082H27.5847L29.5815 19.4072H27.9669L27.6705 18.5102ZM27.2883 17.3402L26.6955 15.5618L26.1105 17.3402H27.2883ZM31.6086 13.9082V19.4072H30.0798V13.9082H31.6086Z" fill="#F2F2F2"/>
</svg>
